<svg width="24" height="24" viewBox="0 0 24 24" fill="none" xmlns="http://www.w3.org/2000/svg">
<path d="M16.34 1.99927H7.67C4.28 1.99927 2 4.37927 2 7.91927V16.0903C2 19.6203 4.28 21.9993 7.67 21.9993H16.34C19.73 21.9993 22 19.6203 22 16.0903V7.91927C22 4.37927 19.73 1.99927 16.34 1.99927V1.99927Z" fill="white"/>
<path d="M15.0096 13.7701C15.3496 14.1101 15.3496 14.6601 15.0096 14.9991C14.8396 15.1691 14.6196 15.2601 14.3896 15.2601C14.1696 15.2601 13.9496 15.1801 13.7796 14.9991L11.9996 13.2301L10.2196 14.9991C10.0496 15.1691 9.82961 15.2601 9.59961 15.2601C9.37961 15.2601 9.14961 15.1691 8.97961 14.9991C8.63961 14.6601 8.63961 14.1101 8.97961 13.7601L10.7596 11.9901L8.97961 10.2091C8.63961 9.87011 8.63961 9.31011 8.97961 8.97011C9.31961 8.62911 9.86961 8.62911 10.2196 8.97011L11.9996 10.7491L13.7696 8.97011C14.1196 8.62911 14.6696 8.62911 15.0096 8.97011C15.3496 9.31011 15.3496 9.87011 15.0096 10.2091L13.2296 11.9901L15.0096 13.7701Z" fill="white"/>
</svg>
