<svg width="19" height="19" viewBox="0 0 19 19" fill="none" xmlns="http://www.w3.org/2000/svg">
<path d="M16.1909 10.989C15.9853 8.39146 14.7393 6.76372 13.6401 5.32732C12.6222 3.99753 11.7431 2.84919 11.7431 1.15522C11.7431 1.01915 11.6646 0.894783 11.5401 0.83243C11.4152 0.769703 11.2652 0.779976 11.1517 0.860052C9.50078 2.00663 8.12333 3.93909 7.64216 5.78295C7.30812 7.06664 7.26392 8.50977 7.25772 9.46289C5.73314 9.14684 5.38778 6.93343 5.38414 6.90931C5.36697 6.79451 5.2947 6.6946 5.18955 6.64004C5.08332 6.58619 4.95845 6.58227 4.85075 6.63401C4.7708 6.67157 2.88842 7.59989 2.7789 11.3064C2.77122 11.4297 2.77087 11.5534 2.77087 11.6771C2.77087 15.278 5.78971 18.2079 9.50004 18.2079C9.50516 18.2082 9.51063 18.2089 9.51501 18.2079C9.51648 18.2079 9.51792 18.2079 9.51974 18.2079C13.221 18.1976 16.2292 15.2716 16.2292 11.6771C16.2292 11.496 16.1909 10.989 16.1909 10.989ZM9.50004 17.4822C8.26314 17.4822 7.25699 16.4419 7.25699 15.1632C7.25699 15.1196 7.25663 15.0757 7.25989 15.0218C7.27486 14.4826 7.38039 14.1144 7.49612 13.8696C7.71299 14.3217 8.10069 14.7373 8.73046 14.7373C8.9371 14.7373 9.10432 14.575 9.10432 14.3745C9.10432 13.8579 9.11529 13.2619 9.2478 12.7241C9.36574 12.2471 9.64756 11.7397 10.0046 11.333C10.1634 11.861 10.473 12.2882 10.7753 12.7053C11.208 13.3019 11.6552 13.9188 11.7337 14.9708C11.7384 15.0332 11.7432 15.0959 11.7432 15.1632C11.7431 16.4419 10.7369 17.4822 9.50004 17.4822Z" fill="white"/>
</svg>
