<svg width="45" height="27" viewBox="0 0 45 27" fill="none" xmlns="http://www.w3.org/2000/svg">
<path fill-rule="evenodd" clip-rule="evenodd" d="M21.4017 2.28379C18.1095 4.95003 16.0112 8.98427 16.0112 13.5C16.0112 18.0157 18.1095 22.05 21.4017 24.7162C19.1248 26.2134 16.4649 27.0071 13.7481 26.9999C6.15456 26.9999 0 20.9565 0 13.5C0 6.04353 6.15456 4.7972e-05 13.7481 4.7972e-05C16.5814 4.7972e-05 19.2143 0.841545 21.4017 2.28379ZM23.1481 24.7162C26.4403 22.05 28.5386 18.0157 28.5386 13.5C28.5386 8.98427 26.4403 4.95003 23.1481 2.28379C25.425 0.786567 28.0849 -0.00710843 30.8018 4.7972e-05C38.3953 4.7972e-05 44.5498 6.04353 44.5498 13.5C44.5498 20.9565 38.3953 26.9999 30.8018 26.9999C28.0849 27.0071 25.425 26.2134 23.1481 24.7162V24.7162ZM22.2749 2.90929C25.4558 5.38428 27.4962 9.20927 27.4962 13.5C27.4962 17.793 25.4558 21.618 22.2749 24.0907C19.0941 21.6157 17.0537 17.7907 17.0537 13.5C17.0537 9.20702 19.0941 5.38203 22.2749 2.90929V2.90929Z" fill="white"/>
</svg>
