<svg width="311" height="205" viewBox="0 0 311 205" fill="none" xmlns="http://www.w3.org/2000/svg">
<rect width="311" height="205" rx="16" fill="#2C2C2E"/>
<path fill-rule="evenodd" clip-rule="evenodd" d="M291.707 175.796C291.707 177.052 292.039 177.793 292.77 178.646C293.323 179.274 293.5 180.081 293.5 180.956C293.5 181.83 293.213 182.66 292.637 183.334C291.884 184.142 290.822 184.657 289.737 184.747C288.166 184.881 286.594 184.994 285 184.994C283.406 184.994 281.835 184.926 280.264 184.747C279.178 184.657 278.116 184.142 277.364 183.334C276.788 182.66 276.5 181.83 276.5 180.956C276.5 180.081 276.678 179.274 277.23 178.646C277.984 177.793 278.294 177.052 278.294 175.796V175.37C278.294 173.688 278.713 172.589 279.577 171.512C280.861 169.942 282.919 169 284.956 169H285.045C287.125 169 289.25 169.987 290.512 171.625C291.331 172.679 291.707 173.733 291.707 175.37V175.796ZM282.074 187.061C282.074 186.557 282.536 186.327 282.963 186.228C283.463 186.122 286.509 186.122 287.009 186.228C287.437 186.327 287.899 186.557 287.899 187.061C287.874 187.54 287.593 187.965 287.204 188.235C286.7 188.628 286.109 188.877 285.491 188.966C285.149 189.011 284.813 189.012 284.483 188.966C283.864 188.877 283.272 188.628 282.769 188.234C282.38 187.965 282.099 187.54 282.074 187.061Z" fill="white"/>
<path d="M16 93H295" stroke="#3A3A3C"/>
</svg>
