<svg width="41" height="26" viewBox="0 0 41 26" fill="none" xmlns="http://www.w3.org/2000/svg">
<path d="M0 12.0589C0 5.39895 5.39895 0 12.0589 0H28.1374C34.7973 0 40.1963 5.39895 40.1963 12.0589V12.0589C40.1963 18.7188 34.7973 24.1178 28.1374 24.1178H12.0589C5.39895 24.1178 0 18.7188 0 12.0589V12.0589Z" fill="#D0FD3E"/>
<g filter="url(#filter0_dd_0_256)">
<path fill-rule="evenodd" clip-rule="evenodd" d="M28.1372 23.3139C34.3531 23.3139 39.3921 18.2749 39.3921 12.0589C39.3921 5.84299 34.3531 0.803974 28.1372 0.803974C21.9213 0.803974 16.8822 5.84299 16.8822 12.0589C16.8822 18.2749 21.9213 23.3139 28.1372 23.3139Z" fill="black"/>
</g>
<defs>
<filter id="filter0_dd_0_256" x="15.2744" y="4.90557e-05" width="25.7255" height="25.7255" filterUnits="userSpaceOnUse" color-interpolation-filters="sRGB">
<feFlood flood-opacity="0" result="BackgroundImageFix"/>
<feColorMatrix in="SourceAlpha" type="matrix" values="0 0 0 0 0 0 0 0 0 0 0 0 0 0 0 0 0 0 127 0" result="hardAlpha"/>
<feOffset dy="0.8"/>
<feGaussianBlur stdDeviation="0.8"/>
<feColorMatrix type="matrix" values="0 0 0 0 0 0 0 0 0 0 0 0 0 0 0 0 0 0 0.2 0"/>
<feBlend mode="normal" in2="BackgroundImageFix" result="effect1_dropShadow_0_256"/>
<feColorMatrix in="SourceAlpha" type="matrix" values="0 0 0 0 0 0 0 0 0 0 0 0 0 0 0 0 0 0 127 0" result="hardAlpha"/>
<feOffset dy="0.08"/>
<feGaussianBlur stdDeviation="0.12"/>
<feColorMatrix type="matrix" values="0 0 0 0 0 0 0 0 0 0 0 0 0 0 0 0 0 0 0.1 0"/>
<feBlend mode="normal" in2="effect1_dropShadow_0_256" result="effect2_dropShadow_0_256"/>
<feBlend mode="normal" in="SourceGraphic" in2="effect2_dropShadow_0_256" result="shape"/>
</filter>
</defs>
</svg>
