<svg width="64" height="79" viewBox="0 0 64 79" fill="none" xmlns="http://www.w3.org/2000/svg">
<rect width="64" height="79" fill="#FF2424"/>
<path fill-rule="evenodd" clip-rule="evenodd" d="M40.2871 33.243C40.6761 33.243 41 33.566 41 33.977V34.357C41 34.758 40.6761 35.0909 40.2871 35.0909H23.7139C23.3239 35.0909 23 34.758 23 34.357V33.977C23 33.566 23.3239 33.243 23.7139 33.243H26.6296C27.2218 33.243 27.7373 32.822 27.8705 32.228L28.0232 31.546C28.2605 30.617 29.0415 30 29.9353 30H34.0647C34.9488 30 35.7385 30.617 35.967 31.497L36.1304 32.227C36.2627 32.822 36.7781 33.243 37.3714 33.243H40.2871ZM38.8058 47.134C39.1102 44.2971 39.6432 37.5571 39.6432 37.4891C39.6626 37.2831 39.5955 37.0881 39.4623 36.9311C39.3193 36.7841 39.1384 36.6971 38.9391 36.6971H25.0685C24.8682 36.6971 24.6776 36.7841 24.5453 36.9311C24.4111 37.0881 24.3449 37.2831 24.3547 37.4891C24.3565 37.5016 24.3756 37.739 24.4076 38.1359C24.5496 39.8992 24.9452 44.8102 25.2008 47.134C25.3817 48.846 26.505 49.922 28.1321 49.961C29.3876 49.99 30.6811 50 32.0038 50C33.2496 50 34.5149 49.99 35.8094 49.961C37.4929 49.932 38.6152 48.875 38.8058 47.134Z" fill="white"/>
</svg>
