<svg width="28" height="28" viewBox="0 0 28 28" fill="none" xmlns="http://www.w3.org/2000/svg">
<path d="M19.0635 2.33325H8.9485C4.9935 2.33325 2.3335 5.10992 2.3335 9.23992V18.7728C2.3335 22.8899 4.9935 25.6666 8.9485 25.6666H19.0635C23.0185 25.6666 25.6668 22.8899 25.6668 18.7728V9.23992C25.6668 5.10992 23.0185 2.33325 19.0635 2.33325" fill="#D0FD3E"/>
<path d="M19.3843 12.2442L13.8427 17.7858C13.6443 17.9842 13.3877 18.0775 13.1193 18.0775C12.8627 18.0775 12.606 17.9842 12.4077 17.7858L9.631 15.0208C9.23433 14.6125 9.23433 13.9708 9.631 13.5742C10.0277 13.1775 10.681 13.1775 11.0777 13.5742L13.1193 15.6158L17.9377 10.7975C18.3343 10.4008 18.9877 10.4008 19.3843 10.7975C19.781 11.2058 19.781 11.8475 19.3843 12.2442" fill="black"/>
</svg>
