<svg width="24" height="24" viewBox="0 0 24 24" fill="none" xmlns="http://www.w3.org/2000/svg">
<path d="M16.3401 2H7.67012C4.28012 2 2.00012 4.38 2.00012 7.92V16.091C2.00012 19.62 4.28012 22 7.67012 22H16.3401C19.7301 22 22.0001 19.62 22.0001 16.091V7.92C22.0001 4.38 19.7301 2 16.3401 2" fill="#D0FD3E"/>
<path d="M16.615 10.495L11.865 15.245C11.695 15.415 11.475 15.495 11.245 15.495C11.025 15.495 10.805 15.415 10.635 15.245L8.255 12.875C7.915 12.525 7.915 11.975 8.255 11.635C8.595 11.295 9.155 11.295 9.495 11.635L11.245 13.385L15.375 9.255C15.715 8.915 16.275 8.915 16.615 9.255C16.955 9.605 16.955 10.155 16.615 10.495" fill="black"/>
</svg>
